<?xml version="1.0" encoding="UTF-8"?>
<svg xmlns="http://www.w3.org/2000/svg" xmlns:xlink="http://www.w3.org/1999/xlink" viewBox="0 0 589.77 589.77">
  <defs>
    <style>
      .cls-1 {
        fill: url(#Ikke-navngivet_forløb_2);
      }

      .cls-1, .cls-2, .cls-3, .cls-4 {
        stroke-width: 0px;
      }

      .cls-2 {
        fill: #05da00;
      }

      .cls-3 {
        fill: #2ba55f;
      }

      .cls-4 {
        fill: #28ac05;
      }
    </style>
    <linearGradient id="Ikke-navngivet_forløb_2" data-name="Ikke-navngivet forløb 2" x1="13.24" y1="294.89" x2="576.53" y2="294.89" gradientUnits="userSpaceOnUse">
      <stop offset="1" stop-color="#fff"/>
      <stop offset="1" stop-color="#1d1d1b"/>
    </linearGradient>
  </defs>
  <g id="Cirkerl">
    <g>
      <circle class="cls-4" cx="294.89" cy="294.89" r="294.89"/>
      <circle class="cls-1" cx="294.89" cy="294.89" r="281.65"/>
    </g>
  </g>
  <g id="Brikker">
    <g>
      <path class="cls-3" d="M255.34,384.11h-59.98c-2.61,0-4.94-1.35-6.24-3.62-1.28-2.24-1.26-5.02.05-7.25,2.21-3.74,3.37-8.04,3.37-12.41,0-6.86-2.77-13.23-7.79-17.91-5.02-4.68-11.57-7-18.46-6.52-12.28.85-22.05,10.76-22.72,23.07-.26,4.85.88,9.61,3.32,13.75,1.32,2.25,1.34,5.04.05,7.29-1.29,2.26-3.62,3.6-6.23,3.6h-59.97v-174.57h59.98c2.61,0,4.94,1.35,6.24,3.62,1.28,2.24,1.26,5.02-.05,7.25-2.21,3.75-3.37,8.04-3.37,12.41,0,6.86,2.76,13.22,7.78,17.91,5.02,4.68,11.57,7,18.45,6.53,12.28-.84,22.05-10.76,22.72-23.06.26-4.85-.88-9.61-3.32-13.75-1.32-2.25-1.34-5.04-.05-7.29,1.29-2.26,3.62-3.6,6.23-3.6h59.97v59.17c5.54-3.22,11.84-4.71,18.31-4.32h0c16.22.98,29.29,13.94,30.4,30.14.63,9.12-2.45,17.81-8.66,24.46-6.13,6.56-14.79,10.33-23.76,10.33-5.75,0-11.35-1.51-16.29-4.38v59.17ZM196.74,376.11h50.6v-52.41c0-2.67,1.45-5.12,3.79-6.41,2.33-1.28,5.16-1.19,7.4.23,3.91,2.49,8.45,3.8,13.1,3.8,6.86,0,13.23-2.76,17.91-7.79,4.68-5.02,7-11.57,6.53-18.45-.84-12.2-10.69-21.97-22.9-22.71-5.22-.32-10.29.99-14.66,3.76-2.22,1.41-5.05,1.5-7.37.23-2.35-1.29-3.8-3.75-3.8-6.42v-52.41h-50.6c2.79,5.22,4.09,11.1,3.76,17.08-.89,16.33-13.85,29.49-30.16,30.61-9.13.63-17.81-2.45-24.46-8.66-6.56-6.13-10.33-14.79-10.33-23.76,0-5.34,1.31-10.59,3.81-15.28h-50.6v158.57h50.6c-2.79-5.22-4.09-11.1-3.76-17.08.89-16.33,13.85-29.49,30.15-30.61,9.12-.62,17.81,2.45,24.46,8.66,6.56,6.13,10.33,14.79,10.33,23.76,0,5.34-1.31,10.59-3.81,15.28Z"/>
      <path class="cls-2" d="M490.77,384.11h-174.57v-59.98c0-2.61,1.35-4.94,3.62-6.24,2.24-1.28,5.02-1.26,7.25.05,3.74,2.21,8.04,3.37,12.41,3.37,6.86,0,13.22-2.76,17.91-7.78,4.68-5.02,7-11.57,6.53-18.46-.85-12.28-10.76-22.05-23.06-22.72-4.85-.27-9.61.88-13.75,3.32-2.25,1.32-5.04,1.34-7.29.05-2.26-1.29-3.6-3.62-3.6-6.23v-59.97h59c-2.76-4.86-4.21-10.37-4.21-15.99,0-8.97,3.76-17.63,10.33-23.76,6.65-6.21,15.34-9.28,24.46-8.66,16.1,1.11,29.06,14.09,30.13,30.2.43,6.42-1,12.69-4.13,18.21h59v59.97c0,2.61-1.35,4.93-3.6,6.23-2.25,1.29-5.04,1.27-7.29-.05-4.15-2.43-8.9-3.59-13.75-3.32h0c-12.3.67-22.22,10.43-23.07,22.72-.47,6.88,1.84,13.44,6.53,18.45,4.69,5.02,11.05,7.78,17.91,7.78,4.37,0,8.66-1.17,12.41-3.37,2.23-1.31,5.01-1.33,7.25-.05,2.26,1.29,3.62,3.63,3.62,6.24v59.98ZM324.19,376.11h158.57v-50.6c-4.68,2.5-9.93,3.81-15.28,3.81-8.97,0-17.63-3.76-23.76-10.33-6.21-6.65-9.29-15.34-8.66-24.46,1.12-16.3,14.28-29.27,30.61-30.16h0c5.98-.33,11.86.97,17.08,3.76v-50.6h-52.22c-2.66,0-5.11-1.44-6.4-3.77-1.28-2.3-1.21-5.1.17-7.33,2.71-4.36,3.96-9.4,3.61-14.58-.81-12.13-10.57-21.91-22.7-22.75-6.89-.47-13.44,1.84-18.46,6.53-5.02,4.69-7.78,11.05-7.78,17.91,0,4.56,1.26,9.01,3.65,12.87,1.39,2.24,1.45,5.06.17,7.37-1.29,2.32-3.74,3.75-6.39,3.75h-52.23v50.6c5.22-2.79,11.1-4.09,17.08-3.76,16.33.89,29.49,13.85,30.61,30.16.63,9.12-2.45,17.81-8.66,24.46-6.13,6.56-14.79,10.33-23.76,10.33-5.34,0-10.59-1.31-15.28-3.81v50.6Z"/>
    </g>
  </g>
</svg>